<svg width="40" height="40" viewBox="0 0 40 40" fill="none" xmlns="http://www.w3.org/2000/svg">
<path d="M12.9183 0L16.3779 6.58404C20.1432 13.7498 15.0068 22.3904 6.98184 22.3904H0V14.4212H6.98184C9.06239 14.4212 10.3941 12.181 9.41786 10.3232L5.95819 3.73917L12.9183 0Z" fill="#00A16F"/>
<path d="M26.4892 0L23.0295 6.58404C19.2642 13.7498 24.4006 22.3904 32.4256 22.3904H39.4074V14.4212H32.4256C30.345 14.4212 29.0134 12.181 29.9895 10.3232L33.4492 3.73917L26.4892 0Z" fill="#00A16F"/>
<path d="M19.5065 30.3947L13.4875 39.2L7.00399 34.6688L13.023 25.8636C16.1565 21.2794 22.8565 21.2794 25.99 25.8636L32.009 34.6688L25.5255 39.2L19.5065 30.3947Z" fill="#00A16F"/>
</svg>
